Coordinates
version=1
nRows=60
nColumns=12
inDegrees=yes

Units are S.I. units (second, meters, Newtons, ...)
Angles are in degrees

endheader
time	SC_y	SC_z	SC_x	AC_y	AC_z	AC_x	GH_y	GH_z	GH_yy	EL_x	PS_y
       0.0              -37.97         -2.618           16.5          55.75         -6.428          6.814         -140.8          27.77         -44.95          54.12          86.08
   0.03645              -37.96         -2.618          16.51          55.74          -6.43          6.812         -140.8          27.77         -44.96          54.12          86.09
   0.07291              -37.96         -2.618          16.51          55.74         -6.432           6.81         -140.7          27.77         -44.97          54.12          86.09
    0.1094              -37.95         -2.618          16.51          55.74         -6.433          6.807         -140.7          27.78         -44.98          54.12          86.09
    0.1458              -37.95         -2.618          16.52          55.74         -6.435          6.804         -140.6          27.78          -45.0          54.13          86.09
    0.1823              -37.94         -2.618          16.52          55.74         -6.438          6.801         -140.6          27.79         -45.01          54.13          86.09
    0.2187              -37.94         -2.618          16.52          55.73          -6.44          6.798         -140.5          27.79         -45.03          54.13           86.1
    0.2552              -37.93         -2.618          16.53          55.73         -6.442          6.795         -140.5           27.8         -45.05          54.13           86.1
    0.2916              -37.93         -2.618          16.53          55.73         -6.445          6.791         -140.4           27.8         -45.07          54.13           86.1
    0.3281              -37.92         -2.617          16.54          55.73         -6.448          6.788         -140.4          27.81         -45.09          54.13           86.1
    0.3645              -37.91         -2.617          16.54          55.72         -6.451          6.783         -140.3          27.82         -45.11          54.14          86.11
     0.401              -37.91         -2.617          16.55          55.72         -6.454          6.779         -140.2          27.82         -45.13          54.14          86.11
    0.4375               -37.9         -2.617          16.55          55.72         -6.458          6.774         -140.1          27.83         -45.16          54.14          86.12
    0.4739              -37.89         -2.617          16.56          55.71         -6.462          6.769         -140.1          27.84         -45.19          54.14          86.12
    0.5104              -37.88         -2.616          16.57          55.71         -6.466          6.764         -140.0          27.85         -45.22          54.14          86.12
    0.5468              -37.87         -2.616          16.58           55.7          -6.47          6.757         -139.9          27.86         -45.25          54.15          86.13
    0.5833              -37.86         -2.616          16.58           55.7         -6.475          6.751         -139.8          27.87         -45.29          54.15          86.13
    0.6197              -37.85         -2.616          16.59          55.69          -6.48          6.744         -139.7          27.88         -45.32          54.15          86.14
    0.6562              -37.83         -2.615           16.6          55.69         -6.486          6.736         -139.5          27.89         -45.37          54.16          86.14
    0.6926              -37.82         -2.615          16.61          55.68         -6.492          6.727         -139.4           27.9         -45.41          54.16          86.15
    0.7291               -37.8         -2.615          16.63          55.68         -6.499          6.718         -139.2          27.92         -45.46          54.16          86.16
    0.7655              -37.78         -2.614          16.64          55.67         -6.507          6.708         -139.1          27.94         -45.52          54.17          86.17
     0.802              -37.76         -2.614          16.65          55.66         -6.515          6.696         -138.9          27.95         -45.58          54.17          86.18
    0.8385              -37.74         -2.614          16.67          55.65         -6.525          6.684         -138.7          27.97         -45.65          54.18          86.19
    0.8749              -37.72         -2.613          16.69          55.64         -6.535           6.67         -138.5           28.0         -45.72          54.19           86.2
    0.9114              -37.69         -2.613          16.71          55.63         -6.547          6.654         -138.2          28.02         -45.81          54.19          86.21
    0.9478              -37.66         -2.612          16.73          55.62          -6.56          6.636         -137.9          28.05          -45.9           54.2          86.22
    0.9843              -37.63         -2.611          16.76           55.6         -6.575          6.616         -137.6          28.08         -46.01          54.21          86.24
     1.021              -37.59          -2.61          16.79          55.59         -6.591          6.594         -137.3          28.11         -46.13          54.22          86.25
     1.057              -37.54         -2.609          16.82          55.57          -6.61          6.569         -136.9          28.15         -46.26          54.23          86.27
     1.094              -37.49         -2.608          16.86          55.55         -6.631           6.54         -136.4           28.2         -46.42          54.25           86.3
      1.13              -37.44         -2.607           16.9          55.52         -6.656          6.507         -135.9          28.25          -46.6          54.26          86.32
     1.167              -37.37         -2.606          16.95          55.49         -6.684          6.468         -135.2          28.31          -46.8          54.28          86.35
     1.203              -37.29         -2.604          17.01          55.46         -6.717          6.424         -134.5          28.38         -47.04           54.3          86.39
     1.239               -37.2         -2.602          17.07          55.42         -6.756          6.371         -133.7          28.46         -47.32          54.32          86.43
     1.276               -37.1           -2.6          17.15          55.38         -6.802           6.31         -132.7          28.56         -47.65          54.35          86.48
     1.312              -36.97         -2.597          17.25          55.33         -6.856          6.237         -131.5          28.68         -48.05          54.38          86.53
     1.349              -36.82         -2.594          17.36          55.26          -6.92          6.149         -130.1          28.81         -48.52          54.42           86.6
     1.385              -36.64          -2.59           17.5          55.19         -6.999          6.043         -128.4          28.98         -49.09          54.47          86.68
     1.422              -36.42         -2.586          17.66          55.09         -7.095          5.914         -126.4          29.19         -49.78          54.53          86.78
     1.458              -36.14          -2.58          17.87          54.98         -7.213          5.754         -123.8          29.44         -50.64           54.6          86.91
     1.495               -35.8         -2.573          18.12          54.83         -7.361          5.555         -120.6          29.75         -51.71          54.69          87.06
     1.531              -35.37         -2.563          18.45          54.65         -7.547          5.304         -116.6          30.15         -53.06          54.81          87.26
     1.568              -34.82         -2.552          18.86          54.42         -7.783          4.985         -111.5          30.65         -54.77          54.95           87.5
     1.604              -34.12         -2.537          19.39          54.12         -8.085          4.577         -104.9          31.29         -56.97          55.13          87.82
      1.64              -33.22         -2.518          20.06          53.74         -8.473          4.053         -96.52          32.12         -59.78          55.37          88.23
     1.677              -32.06         -2.494          20.92          53.25         -8.969          3.383         -85.79          33.17         -63.38          55.68          88.75
     1.713              -30.62         -2.463          22.01          52.64         -9.592          2.541          -72.3           34.5          -67.9          56.06           89.4
      1.75              -28.85         -2.426          23.33           51.9         -10.35          1.516         -55.86          36.12         -73.41          56.52           90.2
     1.786              -26.81         -2.383          24.86          51.03         -11.23         0.3269         -36.81          37.99          -79.8          57.06          91.12
     1.823              -24.59         -2.336          26.52           50.1         -12.19        -0.9604         -16.17          40.02         -86.72          57.64          92.12
     1.859              -22.38         -2.289          28.18          49.16         -13.14         -2.248          4.461          42.05         -93.64          58.23          93.12
     1.896              -20.33         -2.246          29.71           48.3         -14.02         -3.437          23.52          43.92         -100.0          58.76          94.04
     1.932              -18.57         -2.209          31.03          47.56         -14.78         -4.462          39.96          45.54         -105.5          59.23          94.84
     1.969              -17.12         -2.178          32.12          46.94          -15.4         -5.304          53.45          46.86         -110.1          59.61          95.49
     2.005              -15.97         -2.154          32.98          46.46          -15.9         -5.973          64.18          47.92         -113.7          59.91          96.01
     2.041              -15.07         -2.135          33.65          46.08         -16.29         -6.497          72.58          48.74         -116.5          60.15          96.42
     2.078              -14.36          -2.12          34.18          45.78         -16.59         -6.906          79.12          49.39         -118.7          60.34          96.74
     2.114              -13.81         -2.108          34.59          45.55         -16.82         -7.225          84.24          49.89         -120.4          60.48          96.98
     2.151              -13.38         -2.099          34.91          45.37         -17.01         -7.476          88.26          50.29         -121.7          60.59          97.18
